<svg width="11" height="16" viewBox="0 0 11 16" fill="none" xmlns="http://www.w3.org/2000/svg">
<circle cx="5.5" cy="8.5" r="5" stroke="white" stroke-opacity="0.5"/>
<path d="M5.50342 11.1943C5.77197 11.1943 6.02018 11.1394 6.24805 11.0295C6.47591 10.9197 6.66309 10.7691 6.80957 10.5779C6.95605 10.3826 7.03947 10.1608 7.05981 9.9126H8.13403C8.11369 10.3032 7.98145 10.6674 7.7373 11.0051C7.49723 11.3388 7.18188 11.6094 6.79126 11.8169C6.40063 12.0203 5.97135 12.1221 5.50342 12.1221C5.007 12.1221 4.57365 12.0346 4.20337 11.8596C3.83716 11.6847 3.53198 11.4446 3.28784 11.1394C3.04777 10.8342 2.8667 10.4843 2.74463 10.0896C2.62663 9.69084 2.56763 9.26969 2.56763 8.82617V8.56982C2.56763 8.1263 2.62663 7.70719 2.74463 7.3125C2.8667 6.91374 3.04777 6.56177 3.28784 6.25659C3.53198 5.95142 3.83716 5.71134 4.20337 5.53638C4.57365 5.36141 5.007 5.27393 5.50342 5.27393C6.02018 5.27393 6.47184 5.37972 6.8584 5.59131C7.24495 5.79883 7.5481 6.08366 7.76782 6.4458C7.99162 6.80387 8.11369 7.21077 8.13403 7.6665H7.05981C7.03947 7.39388 6.96216 7.14771 6.82788 6.92798C6.69767 6.70825 6.51864 6.53328 6.29077 6.40308C6.06698 6.2688 5.80452 6.20166 5.50342 6.20166C5.15755 6.20166 4.86662 6.27083 4.63062 6.40918C4.39868 6.54346 4.21354 6.72656 4.0752 6.9585C3.94092 7.18636 3.84326 7.44067 3.78223 7.72144C3.72526 7.99813 3.69678 8.28092 3.69678 8.56982V8.82617C3.69678 9.11507 3.72526 9.3999 3.78223 9.68066C3.83919 9.96143 3.93481 10.2157 4.06909 10.4436C4.20744 10.6715 4.39258 10.8546 4.62451 10.9929C4.86051 11.1272 5.15348 11.1943 5.50342 11.1943Z" fill="white" fill-opacity="0.5"/>
</svg>
