<svg width="172" height="54" viewBox="0 0 172 54" fill="none" xmlns="http://www.w3.org/2000/svg">
<path d="M165.258 40.6452L156.258 35.4194L133.032 37.1613L128.968 32.9516M124.903 28.7419L128.968 32.9516M128.968 32.9516L119.387 39.4839L102.839 37.1613L86.2901 31.3548C78.5482 33.1936 61.7289 37.5678 56.3869 40.3548L36.3547 37.1613L18.9353 47.9032" stroke="#8080FF" stroke-width="2"/>
<path d="M66.5483 14.2258C62.8709 17.3226 55.2838 24.3871 54.3547 27.871" stroke="#8080FF" stroke-width="2"/>
<path d="M7.61279 6.38708C15.1612 11.0322 23.2902 16.8387 37.8063 15.6774C52.3225 14.5161 72.0644 14.2258 76.1289 14.2258C80.1934 14.2258 95.2902 17.129 104.29 16.5484C113.29 15.9677 115.613 16.5484 126.645 9.58063C130.826 9.34838 143.871 10.0645 149.871 10.4516L153.935 7.54838C154.516 8.41934 155.91 10.2193 156.839 10.4516C158 10.7419 162.645 12.7742 162.935 13.3548C163.226 13.9355 162.355 16.5484 162.935 16.8387C163.516 17.129 166.419 20.3226 166.419 20.6129C166.419 20.9032 163.226 24.9677 162.935 24.9677C162.645 24.9677 159.452 23.5161 158.871 23.5161C158.29 23.5161 155.968 24.9677 155.097 24.9677C154.226 24.9677 151.322 22.9355 150.742 22.9355C150.277 22.9355 145.129 26.8064 142.613 28.7419" stroke="#8080FF" stroke-width="2"/>
<circle cx="4.70954" cy="4.06452" r="3.06452" stroke="#8080FF" stroke-width="2"/>
<circle cx="52.9031" cy="30.7742" r="3.06452" stroke="#8080FF" stroke-width="2"/>
<circle cx="16.3223" cy="49.9355" r="3.06452" stroke="#8080FF" stroke-width="2"/>
<circle cx="167.29" cy="42.9677" r="3.06452" stroke="#8080FF" stroke-width="2"/>
</svg>
